<svg width="28" height="28" viewBox="0 0 34 34" fill="none" xmlns="http://www.w3.org/2000/svg">
<path d="M8.5 9.775L5.4825 6.77166L7.48 4.77416L10.4833 7.79166L8.5 9.775ZM18.4167 1.41666V5.66666H15.5833V1.41666H18.4167ZM28.5175 6.77166L25.5 9.775L23.5167 7.79166L26.52 4.77416L28.5175 6.77166ZM6.375 14.875V17.7083H2.125V14.875H6.375ZM27.625 14.875H31.875V17.7083H27.625V14.875ZM8.5 28.3333H25.5C26.2514 28.3333 26.9721 28.6318 27.5035 29.1632C28.0348 29.6945 28.3333 30.4152 28.3333 31.1667H5.66667C5.66667 30.4152 5.96518 29.6945 6.49653 29.1632C7.02788 28.6318 7.74855 28.3333 8.5 28.3333ZM17 7.08333C19.2543 7.08333 21.4163 7.97886 23.0104 9.57292C24.6045 11.167 25.5 13.329 25.5 15.5833V26.9167H8.5V15.5833C8.5 13.329 9.39553 11.167 10.9896 9.57292C12.5837 7.97886 14.7457 7.08333 17 7.08333ZM17 9.91666C15.4971 9.91667 14.0558 10.5137 12.9931 11.5764C11.9304 12.6391 11.3333 14.0804 11.3333 15.5833V24.0833H22.6667V15.5833C22.6667 14.0804 22.0696 12.6391 21.0069 11.5764C19.9442 10.5137 18.5029 9.91667 17 9.91666Z" fill="url(#paint0_linear_2_6)"/>
<defs>
<linearGradient id="paint0_linear_2_6" x1="17" y1="1.41666" x2="17" y2="31.1667" gradientUnits="userSpaceOnUse">
<stop stop-color="#9563FF"/>
<stop offset="1" stop-color="#1BE4FF"/>
</linearGradient>
</defs>
</svg>
