<svg width="50" height="50" viewBox="0 0 84 84" fill="none" xmlns="http://www.w3.org/2000/svg">
<path d="M70.9333 41.0667C66.7333 36.6333 61.1334 33.6 55.3 32.4333C52.7334 31.7333 50.1667 31.2667 47.6 31.0333C54.1334 23.3333 52.9667 11.6667 45.2667 5.13334C37.5667 -1.4 25.9 -0.233332 19.3667 7.46667C12.8334 15.1667 14 26.8333 21.7 33.3667C23.1 34.5333 24.5 35.4667 25.9 35.9333V41.0667L22.1667 37.5667C18.9 34.3 13.5334 34.3 10.0334 37.5667C6.76669 40.8333 6.53335 45.9667 9.80002 49.2333L20.5334 61.8333C21 65.1 22.1667 68.1333 23.8 70.9333C24.9667 73.0333 26.6 75.1333 28.2334 76.7667V81.2C28.2334 82.6 29.1667 83.5333 30.5667 83.5333H62.3C63.4667 83.5333 64.6334 82.3667 64.6334 81.2V75.1333C69.0667 69.7667 71.4 63 71.4 56.2333V42.7C71.6333 41.7667 71.4 41.3 70.9333 41.0667ZM19.6 19.1333C19.6 11.4333 25.9 5.36667 33.6 5.6C41.3 5.6 47.3667 11.9 47.1334 19.6C47.1334 23.8 45.2667 27.5333 42 30.1V18.4333C41.8809 16.4112 40.9927 14.5112 39.5176 13.1229C38.0426 11.7346 36.0923 10.9632 34.0667 10.9667C29.8667 10.7333 26.1334 14.2333 26.1334 18.4333V30.5667C22.1667 28.2333 19.8334 23.8 19.6 19.1333ZM66.9667 56C67.2 62.0667 65.1 67.9 61.1334 72.5667C60.6667 73.0333 60.2 73.5 60.2 74.2V79.1H33.1334V75.8333C33.1334 75.1333 32.6667 74.4333 32.2 73.9667C30.5667 72.5667 29.1667 70.9333 28 68.8333C26.6 66.5 25.6667 63.7 25.2 60.9C25.2 60.4333 24.9667 59.9667 24.7334 59.5L13.5334 46.2C12.8334 45.5 12.3667 44.5667 12.3667 43.4C12.3667 42.4667 12.8334 41.3 13.5334 40.6C15.1667 39.2 17.5 39.2 19.1334 40.6L25.9 47.3667V54.3667L30.3334 52.0333V18.4333C30.5667 16.8 31.9667 15.4 33.8334 15.6333C35.4667 15.6333 37.1 16.8 37.1 18.4333V45.2667L41.7667 46.2V35.4667C42 35.2333 42.2334 35.2333 42.4667 35C44.1 35 45.7333 35.2333 47.3667 35.4667V47.3667L51.1 48.0667V35.9333L53.9 36.6333C55.0667 36.8667 56.2333 37.3333 57.4 37.8V49.4667L61.1334 50.1667V39.4333C63.2334 40.3667 65.1 41.7667 66.7333 43.4L66.9667 56Z" fill="white"/>
</svg>
